<?xml version="1.0" standalone="no"?><!DOCTYPE svg PUBLIC "-//W3C//DTD SVG 1.1//EN" "http://www.w3.org/Graphics/SVG/1.1/DTD/svg11.dtd"><svg t="1541755608998" class="icon" style="" viewBox="0 0 1024 1024" version="1.1" xmlns="http://www.w3.org/2000/svg" p-id="3026" xmlns:xlink="http://www.w3.org/1999/xlink" width="48" height="48"><defs><style type="text/css"></style></defs><path d="M513.335652 82.142609C611.06087 152.932174 868.173913 361.961739 868.173913 601.043478a356.173913 356.173913 0 0 1-712.347826 0C155.826087 378.434783 415.833043 157.161739 513.335652 82.142609M512 0S89.043478 289.391304 89.043478 601.043478a422.956522 422.956522 0 0 0 845.913044 0C934.956522 267.130435 512 0 512 0z" fill="#F29925" p-id="3027"></path><path d="M427.853913 881.085217a23.81913 23.81913 0 0 1-9.572174-2.003478 22.26087 22.26087 0 0 1-12.020869-26.267826l73.23826-264.013913h-121.544347a22.26087 22.26087 0 0 1-18.699131-34.504348l200.347826-303.638261A22.26087 22.26087 0 0 1 578.782609 267.130435l-36.285218 200.347826h139.575652a22.26087 22.26087 0 0 1 19.589566 12.020869 22.26087 22.26087 0 0 1-1.335652 22.26087L445.217391 871.513043a22.26087 22.26087 0 0 1-17.363478 9.572174z m-28.716522-336.806956h109.746087a22.26087 22.26087 0 0 1 17.586087 8.904348 22.26087 22.26087 0 0 1 3.784348 19.366956l-45.634783 164.953044 155.826087-225.725218h-123.547826a22.26087 22.26087 0 0 1-22.260869-26.267826l22.260869-119.318261z" fill="#F29925" p-id="3028"></path></svg>