<?xml version="1.0" encoding="utf-8"?>
<svg version="1.1" xmlns:xlink="http://www.w3.org/1999/xlink" width="31px" height="30px" xmlns="http://www.w3.org/2000/svg">
  <g transform="matrix(1 0 0 1 -247 -348 )">
    <path d="M 8.3996699669967 8.12871287128713  C 8.91122112211221 7.63366336633663  9.16699669966997 7.03630363036303  9.16699669966997 6.33663366336634  C 9.16699669966997 5.63696369636963  8.91122112211221 5.03960396039604  8.3996699669967 4.54455445544555  C 7.88811881188119 4.04950495049505  7.27084708470847 3.8019801980198  6.54785478547855 3.8019801980198  C 5.82486248624863 3.8019801980198  5.20759075907591 4.04950495049505  4.6960396039604 4.54455445544555  C 4.18448844884488 5.03960396039604  3.92871287128713 5.63696369636963  3.92871287128713 6.33663366336634  C 3.92871287128713 7.03630363036303  4.18448844884488 7.63366336633663  4.6960396039604 8.12871287128713  C 5.20759075907591 8.62376237623762  5.82486248624863 8.87128712871287  6.54785478547855 8.87128712871287  C 7.27084708470847 8.87128712871287  7.88811881188119 8.62376237623762  8.3996699669967 8.12871287128713  Z M 30.242904290429 15.9405940594059  C 30.7476347634763 16.4554455445545  31 17.0561056105611  31 17.7425742574257  C 31 18.4422442244224  30.7476347634763 19.036303630363  30.242904290429 19.5247524752475  L 20.1960396039604 29.2673267326733  C 19.6640264026403 29.7557755775578  19.0433443344334 30  18.3339933993399 30  C 17.61100110011 30  16.9971397139714 29.7557755775578  16.4924092409241 29.2673267326733  L 1.86204620462046 15.0891089108911  C 1.34367436743674 14.6006600660066  0.903740374037404 13.9339933993399  0.542244224422442 13.0891089108911  C 0.180748074807481 12.2442244224422  0 11.4719471947195  0 10.7722772277228  L 0 2.53465346534653  C 0 1.84818481848185  0.259185918591859 1.25412541254125  0.777557755775578 0.752475247524751  C 1.2959295929593 0.250825082508248  1.90979097909791 0  2.61914191419142 0  L 11.1313531353135 0  C 11.8543454345435 0  12.6523652365237 0.174917491749172  13.5254125412541 0.524752475247524  C 14.3984598459846 0.874587458745872  15.0941694169417 1.3003300330033  15.6125412541254 1.8019801980198  L 30.242904290429 15.9405940594059  Z " fill-rule="nonzero" fill="#ff0000" stroke="none" transform="matrix(1 0 0 1 247 348 )" />
  </g>
</svg>