<?xml version="1.0" encoding="utf-8"?>
<svg version="1.1" xmlns:xlink="http://www.w3.org/1999/xlink" width="30px" height="30px" xmlns="http://www.w3.org/2000/svg">
  <g transform="matrix(1 0 0 1 -153 -347 )">
    <path d="M 9.54545454545455 16.1538461538462  L 12.2727272727273 27.6923076923077  L 14.3181818181818 19.6153846153846  L 12.2727272727273 17.3076923076923  L 9.54545454545455 16.1538461538462  Z M 15.6818181818182 19.6153846153846  L 17.7272727272727 27.6923076923077  L 20.4545454545455 16.1538461538462  L 17.7272727272727 17.3076923076923  L 15.6818181818182 19.6153846153846  Z M 21.0511363636364 9.96995192307692  C 21.0795454545455 9.86177884615385  21.1079545454545 9.69951923076923  21.1363636363636 9.48317307692308  C 21.1079545454545 9.43509615384615  21.0795454545455 9.39903846153846  21.0511363636364 9.375  C 20.9090909090909 9.27884615384615  20.2272727272727 9.23076923076923  19.0056818181818 9.23076923076923  C 18.0113636363636 9.23076923076923  16.8252840909091 9.34495192307692  15.4474431818182 9.57331730769231  C 15.3480113636364 9.59735576923077  15.1988636363636 9.609375  15 9.609375  C 14.8011363636364 9.609375  14.6519886363636 9.59735576923077  14.5525568181818 9.57331730769231  C 13.1747159090909 9.34495192307692  11.9886363636364 9.23076923076923  10.9943181818182 9.23076923076923  C 9.77272727272727 9.23076923076923  9.09090909090909 9.27884615384615  8.94886363636364 9.375  C 8.92045454545455 9.39903846153846  8.89204545454546 9.43509615384615  8.86363636363636 9.48317307692308  C 8.89204545454546 9.69951923076923  8.92045454545455 9.86177884615385  8.94886363636364 9.96995192307692  C 8.97727272727273 10.0060096153846  9.03053977272727 10.0450721153846  9.10866477272727 10.0871394230769  C 9.18678977272727 10.1292067307692  9.24005681818182 10.1923076923077  9.26846590909091 10.2764423076923  C 9.296875 10.3245192307692  9.35014204545455 10.4477163461538  9.42826704545455 10.6460336538462  C 9.50639204545455 10.8443509615385  9.55610795454546 10.9675480769231  9.57741477272727 11.015625  C 9.59872159090909 11.0637019230769  9.65198863636364 11.1658653846154  9.73721590909091 11.3221153846154  C 9.82244318181818 11.4783653846154  9.8828125 11.5805288461538  9.91832386363636 11.6286057692308  C 9.95383522727273 11.6766826923077  10.0177556818182 11.7608173076923  10.1100852272727 11.8810096153846  C 10.2024147727273 12.0012019230769  10.2876420454545 12.0823317307692  10.3657670454545 12.1243990384615  C 10.4438920454545 12.1664663461538  10.5433238636364 12.2235576923077  10.6640625 12.2956730769231  C 10.7848011363636 12.3677884615385  10.9090909090909 12.4158653846154  11.0369318181818 12.4399038461538  C 11.1647727272727 12.4639423076923  11.3103693181818 12.4879807692308  11.4737215909091 12.5120192307692  C 11.6370738636364 12.5360576923077  11.8110795454545 12.5480769230769  11.9957386363636 12.5480769230769  C 12.5071022727273 12.5480769230769  12.9261363636364 12.4729567307692  13.2528409090909 12.3227163461538  C 13.5795454545455 12.1724759615385  13.8103693181818 11.9921875  13.9453125 11.7818509615385  C 14.0802556818182 11.5715144230769  14.1832386363636 11.3641826923077  14.2542613636364 11.1598557692308  C 14.3252840909091 10.9555288461538  14.4069602272727 10.7782451923077  14.4992897727273 10.6280048076923  C 14.5916193181818 10.4777644230769  14.7159090909091 10.4026442307692  14.8721590909091 10.4026442307692  L 15.1278409090909 10.4026442307692  C 15.2840909090909 10.4026442307692  15.4083806818182 10.4777644230769  15.5007102272727 10.6280048076923  C 15.5930397727273 10.7782451923077  15.6747159090909 10.9555288461538  15.7457386363636 11.1598557692308  C 15.8167613636364 11.3641826923077  15.9197443181818 11.5715144230769  16.0546875 11.7818509615385  C 16.1896306818182 11.9921875  16.4204545454545 12.1724759615385  16.7471590909091 12.3227163461538  C 17.0738636363636 12.4729567307692  17.4928977272727 12.5480769230769  18.0042613636364 12.5480769230769  C 18.1889204545455 12.5480769230769  18.3629261363636 12.5360576923077  18.5262784090909 12.5120192307692  C 18.6896306818182 12.4879807692308  18.8352272727273 12.4639423076923  18.9630681818182 12.4399038461538  C 19.0909090909091 12.4158653846154  19.2151988636364 12.3677884615385  19.3359375 12.2956730769231  C 19.4566761363636 12.2235576923077  19.5561079545455 12.1664663461538  19.6342329545455 12.1243990384615  C 19.7123579545455 12.0823317307692  19.7975852272727 12.0012019230769  19.8899147727273 11.8810096153846  C 19.9822443181818 11.7608173076923  20.0461647727273 11.6766826923077  20.0816761363636 11.6286057692308  C 20.1171875 11.5805288461538  20.1775568181818 11.4783653846154  20.2627840909091 11.3221153846154  C 20.3480113636364 11.1658653846154  20.4012784090909 11.0637019230769  20.4225852272727 11.015625  C 20.4438920454545 10.9675480769231  20.4936079545455 10.8443509615385  20.5717329545455 10.6460336538462  C 20.6498579545455 10.4477163461538  20.703125 10.3245192307692  20.7315340909091 10.2764423076923  C 20.7599431818182 10.1923076923077  20.8132102272727 10.1292067307692  20.8913352272727 10.0871394230769  C 20.9694602272727 10.0450721153846  21.0227272727273 10.0060096153846  21.0511363636364 9.96995192307692  Z M 29.8295454545455 22.6532451923077  C 29.9431818181818 23.5126201923077  30 24.4050480769231  30 25.3305288461538  C 30 26.7848557692308  29.4815340909091 27.9266826923077  28.4446022727273 28.7560096153846  C 27.4076704545455 29.5853365384615  26.0298295454545 30  24.3110795454545 30  L 5.68892045454546 30  C 3.97017045454546 30  2.59232954545455 29.5853365384615  1.55539772727273 28.7560096153846  C 0.518465909090909 27.9266826923077  0 26.7848557692308  0 25.3305288461538  C 0 24.5973557692308  0.0319602272727273 23.8882211538462  0.0958806818181818 23.203125  C 0.159801136363636 22.5180288461538  0.294744318181818 21.7638221153846  0.500710227272727 20.9405048076923  C 0.706676136363636 20.1171875  0.973011363636364 19.375  1.29971590909091 18.7139423076923  C 1.62642045454545 18.0528846153846  2.07741477272727 17.4308894230769  2.65269886363636 16.8479567307692  C 3.22798295454545 16.2650240384615  3.89204545454546 15.8173076923077  4.64488636363636 15.5048076923077  L 2.72727272727273 11.5384615384615  L 7.28693181818182 11.5384615384615  C 6.97443181818182 10.7692307692308  6.81818181818182 10  6.81818181818182 9.23076923076923  C 6.81818181818182 9.08653846153846  6.83238636363636 8.89423076923077  6.86079545454546 8.65384615384615  C 4.10511363636364 8.17307692307692  2.72727272727273 7.59615384615385  2.72727272727273 6.92307692307692  C 2.72727272727273 6.23798076923077  4.21875 5.64302884615385  7.20170454545455 5.13822115384615  C 7.44318181818182 4.39302884615384  7.80894886363636 3.58774038461538  8.29900568181818 2.72235576923077  C 8.7890625 1.85697115384615  9.28977272727273 1.171875  9.80113636363636 0.667067307692306  C 10.2556818181818 0.222355769230771  10.7954545454545 0  11.4204545454545 0  C 11.8465909090909 0  12.4431818181818 0.18629807692308  13.2102272727273 0.558894230769231  C 13.9772727272727 0.931490384615382  14.5738636363636 1.11778846153846  15 1.11778846153846  C 15.4261363636364 1.11778846153846  16.0227272727273 0.931490384615382  16.7897727272727 0.558894230769231  C 17.5568181818182 0.18629807692308  18.1534090909091 0  18.5795454545455 0  C 19.2045454545455 0  19.7443181818182 0.222355769230771  20.1988636363636 0.667067307692306  C 20.7102272727273 1.171875  21.2109375 1.85697115384615  21.7009943181818 2.72235576923077  C 22.1910511363636 3.58774038461538  22.5568181818182 4.39302884615384  22.7982954545455 5.13822115384615  C 25.78125 5.64302884615385  27.2727272727273 6.23798076923077  27.2727272727273 6.92307692307692  C 27.2727272727273 7.59615384615385  25.8948863636364 8.17307692307692  23.1392045454545 8.65384615384615  C 23.2386363636364 9.62740384615385  23.0965909090909 10.5889423076923  22.7130681818182 11.5384615384615  L 27.2727272727273 11.5384615384615  L 25.5255681818182 15.5949519230769  C 26.4204545454545 15.9915865384615  27.1839488636364 16.5715144230769  27.8160511363636 17.3347355769231  C 28.4481534090909 18.0979567307692  28.9133522727273 18.9603365384615  29.2116477272727 19.921875  C 29.5099431818182 20.8834134615385  29.7159090909091 21.7938701923077  29.8295454545455 22.6532451923077  Z " fill-rule="nonzero" fill="#00ccff" stroke="none" transform="matrix(1 0 0 1 153 347 )" />
  </g>
</svg>