<?xml version="1.0" encoding="utf-8"?>
<svg version="1.1" xmlns:xlink="http://www.w3.org/1999/xlink" width="30px" height="28px" xmlns="http://www.w3.org/2000/svg">
  <g transform="matrix(1 0 0 1 -62 -349 )">
    <path d="M 9.06850961538462 25.2755681818182  C 9.17668269230769 25.15625  9.23076923076923 25.0037878787879  9.23076923076923 24.8181818181818  L 9.23076923076923 21  C 9.23076923076923 20.8143939393939  9.17668269230769 20.6619318181818  9.06850961538462 20.5426136363636  C 8.96033653846154 20.4232954545455  8.82211538461539 20.3636363636364  8.65384615384615 20.3636363636364  L 2.88461538461538 20.3636363636364  C 2.71634615384615 20.3636363636364  2.578125 20.4232954545455  2.46995192307692 20.5426136363636  C 2.36177884615385 20.6619318181818  2.30769230769231 20.8143939393939  2.30769230769231 21  L 2.30769230769231 24.8181818181818  C 2.30769230769231 25.0037878787879  2.36177884615385 25.15625  2.46995192307692 25.2755681818182  C 2.578125 25.3948863636364  2.71634615384615 25.4545454545455  2.88461538461538 25.4545454545455  L 8.65384615384615 25.4545454545455  C 8.82211538461539 25.4545454545455  8.96033653846154 25.3948863636364  9.06850961538462 25.2755681818182  Z M 9.06850961538462 17.6392045454545  C 9.17668269230769 17.5198863636364  9.23076923076923 17.3674242424242  9.23076923076923 17.1818181818182  L 9.23076923076923 13.3636363636364  C 9.23076923076923 13.1780303030303  9.17668269230769 13.0255681818182  9.06850961538462 12.90625  C 8.96033653846154 12.7869318181818  8.82211538461539 12.7272727272727  8.65384615384615 12.7272727272727  L 2.88461538461538 12.7272727272727  C 2.71634615384615 12.7272727272727  2.578125 12.7869318181818  2.46995192307692 12.90625  C 2.36177884615385 13.0255681818182  2.30769230769231 13.1780303030303  2.30769230769231 13.3636363636364  L 2.30769230769231 17.1818181818182  C 2.30769230769231 17.3674242424242  2.36177884615385 17.5198863636364  2.46995192307692 17.6392045454545  C 2.578125 17.7585227272727  2.71634615384615 17.8181818181818  2.88461538461538 17.8181818181818  L 8.65384615384615 17.8181818181818  C 8.82211538461539 17.8181818181818  8.96033653846154 17.7585227272727  9.06850961538462 17.6392045454545  Z M 18.2992788461538 25.2755681818182  C 18.4074519230769 25.15625  18.4615384615385 25.0037878787879  18.4615384615385 24.8181818181818  L 18.4615384615385 21  C 18.4615384615385 20.8143939393939  18.4074519230769 20.6619318181818  18.2992788461538 20.5426136363636  C 18.1911057692308 20.4232954545455  18.0528846153846 20.3636363636364  17.8846153846154 20.3636363636364  L 12.1153846153846 20.3636363636364  C 11.9471153846154 20.3636363636364  11.8088942307692 20.4232954545455  11.7007211538462 20.5426136363636  C 11.5925480769231 20.6619318181818  11.5384615384615 20.8143939393939  11.5384615384615 21  L 11.5384615384615 24.8181818181818  C 11.5384615384615 25.0037878787879  11.5925480769231 25.15625  11.7007211538462 25.2755681818182  C 11.8088942307692 25.3948863636364  11.9471153846154 25.4545454545455  12.1153846153846 25.4545454545455  L 17.8846153846154 25.4545454545455  C 18.0528846153846 25.4545454545455  18.1911057692308 25.3948863636364  18.2992788461538 25.2755681818182  Z M 9.06850961538462 10.0028409090909  C 9.17668269230769 9.88352272727273  9.23076923076923 9.73106060606061  9.23076923076923 9.54545454545455  L 9.23076923076923 5.72727272727273  C 9.23076923076923 5.54166666666666  9.17668269230769 5.38920454545455  9.06850961538462 5.26988636363636  C 8.96033653846154 5.15056818181818  8.82211538461539 5.09090909090909  8.65384615384615 5.09090909090909  L 2.88461538461538 5.09090909090909  C 2.71634615384615 5.09090909090909  2.578125 5.15056818181818  2.46995192307692 5.26988636363636  C 2.36177884615385 5.38920454545455  2.30769230769231 5.54166666666666  2.30769230769231 5.72727272727273  L 2.30769230769231 9.54545454545455  C 2.30769230769231 9.73106060606061  2.36177884615385 9.88352272727273  2.46995192307692 10.0028409090909  C 2.578125 10.1221590909091  2.71634615384615 10.1818181818182  2.88461538461538 10.1818181818182  L 8.65384615384615 10.1818181818182  C 8.82211538461539 10.1818181818182  8.96033653846154 10.1221590909091  9.06850961538462 10.0028409090909  Z M 18.2992788461538 17.6392045454545  C 18.4074519230769 17.5198863636364  18.4615384615385 17.3674242424242  18.4615384615385 17.1818181818182  L 18.4615384615385 13.3636363636364  C 18.4615384615385 13.1780303030303  18.4074519230769 13.0255681818182  18.2992788461538 12.90625  C 18.1911057692308 12.7869318181818  18.0528846153846 12.7272727272727  17.8846153846154 12.7272727272727  L 12.1153846153846 12.7272727272727  C 11.9471153846154 12.7272727272727  11.8088942307692 12.7869318181818  11.7007211538462 12.90625  C 11.5925480769231 13.0255681818182  11.5384615384615 13.1780303030303  11.5384615384615 13.3636363636364  L 11.5384615384615 17.1818181818182  C 11.5384615384615 17.3674242424242  11.5925480769231 17.5198863636364  11.7007211538462 17.6392045454545  C 11.8088942307692 17.7585227272727  11.9471153846154 17.8181818181818  12.1153846153846 17.8181818181818  L 17.8846153846154 17.8181818181818  C 18.0528846153846 17.8181818181818  18.1911057692308 17.7585227272727  18.2992788461538 17.6392045454545  Z M 27.5300480769231 25.2755681818182  C 27.6382211538462 25.15625  27.6923076923077 25.0037878787879  27.6923076923077 24.8181818181818  L 27.6923076923077 21  C 27.6923076923077 20.8143939393939  27.6382211538462 20.6619318181818  27.5300480769231 20.5426136363636  C 27.421875 20.4232954545455  27.2836538461539 20.3636363636364  27.1153846153846 20.3636363636364  L 21.3461538461538 20.3636363636364  C 21.1778846153846 20.3636363636364  21.0396634615385 20.4232954545455  20.9314903846154 20.5426136363636  C 20.8233173076923 20.6619318181818  20.7692307692308 20.8143939393939  20.7692307692308 21  L 20.7692307692308 24.8181818181818  C 20.7692307692308 25.0037878787879  20.8233173076923 25.15625  20.9314903846154 25.2755681818182  C 21.0396634615385 25.3948863636364  21.1778846153846 25.4545454545455  21.3461538461538 25.4545454545455  L 27.1153846153846 25.4545454545455  C 27.2836538461539 25.4545454545455  27.421875 25.3948863636364  27.5300480769231 25.2755681818182  Z M 18.2992788461538 10.0028409090909  C 18.4074519230769 9.88352272727273  18.4615384615385 9.73106060606061  18.4615384615385 9.54545454545455  L 18.4615384615385 5.72727272727273  C 18.4615384615385 5.54166666666666  18.4074519230769 5.38920454545455  18.2992788461538 5.26988636363636  C 18.1911057692308 5.15056818181818  18.0528846153846 5.09090909090909  17.8846153846154 5.09090909090909  L 12.1153846153846 5.09090909090909  C 11.9471153846154 5.09090909090909  11.8088942307692 5.15056818181818  11.7007211538462 5.26988636363636  C 11.5925480769231 5.38920454545455  11.5384615384615 5.54166666666666  11.5384615384615 5.72727272727273  L 11.5384615384615 9.54545454545455  C 11.5384615384615 9.73106060606061  11.5925480769231 9.88352272727273  11.7007211538462 10.0028409090909  C 11.8088942307692 10.1221590909091  11.9471153846154 10.1818181818182  12.1153846153846 10.1818181818182  L 17.8846153846154 10.1818181818182  C 18.0528846153846 10.1818181818182  18.1911057692308 10.1221590909091  18.2992788461538 10.0028409090909  Z M 27.5300480769231 17.6392045454545  C 27.6382211538462 17.5198863636364  27.6923076923077 17.3674242424242  27.6923076923077 17.1818181818182  L 27.6923076923077 13.3636363636364  C 27.6923076923077 13.1780303030303  27.6382211538462 13.0255681818182  27.5300480769231 12.90625  C 27.421875 12.7869318181818  27.2836538461539 12.7272727272727  27.1153846153846 12.7272727272727  L 21.3461538461538 12.7272727272727  C 21.1778846153846 12.7272727272727  21.0396634615385 12.7869318181818  20.9314903846154 12.90625  C 20.8233173076923 13.0255681818182  20.7692307692308 13.1780303030303  20.7692307692308 13.3636363636364  L 20.7692307692308 17.1818181818182  C 20.7692307692308 17.3674242424242  20.8233173076923 17.5198863636364  20.9314903846154 17.6392045454545  C 21.0396634615385 17.7585227272727  21.1778846153846 17.8181818181818  21.3461538461538 17.8181818181818  L 27.1153846153846 17.8181818181818  C 27.2836538461539 17.8181818181818  27.421875 17.7585227272727  27.5300480769231 17.6392045454545  Z M 27.5300480769231 10.0028409090909  C 27.6382211538462 9.88352272727273  27.6923076923077 9.73106060606061  27.6923076923077 9.54545454545455  L 27.6923076923077 5.72727272727273  C 27.6923076923077 5.54166666666666  27.6382211538462 5.38920454545455  27.5300480769231 5.26988636363636  C 27.421875 5.15056818181818  27.2836538461539 5.09090909090909  27.1153846153846 5.09090909090909  L 21.3461538461538 5.09090909090909  C 21.1778846153846 5.09090909090909  21.0396634615385 5.15056818181818  20.9314903846154 5.26988636363636  C 20.8233173076923 5.38920454545455  20.7692307692308 5.54166666666666  20.7692307692308 5.72727272727273  L 20.7692307692308 9.54545454545455  C 20.7692307692308 9.73106060606061  20.8233173076923 9.88352272727273  20.9314903846154 10.0028409090909  C 21.0396634615385 10.1221590909091  21.1778846153846 10.1818181818182  21.3461538461538 10.1818181818182  L 27.1153846153846 10.1818181818182  C 27.2836538461539 10.1818181818182  27.421875 10.1221590909091  27.5300480769231 10.0028409090909  Z M 29.1526442307692 0.93465909090909  C 29.7175480769231 1.55776515151515  30 2.30681818181818  30 3.18181818181818  L 30 24.8181818181818  C 30 25.6931818181818  29.7175480769231 26.4422348484848  29.1526442307692 27.0653409090909  C 28.5877403846154 27.688446969697  27.9086538461538 28  27.1153846153846 28  L 2.88461538461538 28  C 2.09134615384615 28  1.41225961538462 27.688446969697  0.847355769230769 27.0653409090909  C 0.282451923076923 26.4422348484848  0 25.6931818181818  0 24.8181818181818  L 0 3.18181818181818  C 0 2.30681818181818  0.282451923076923 1.55776515151515  0.847355769230769 0.93465909090909  C 1.41225961538462 0.311553030303027  2.09134615384615 0  2.88461538461538 0  L 27.1153846153846 0  C 27.9086538461538 0  28.5877403846154 0.311553030303027  29.1526442307692 0.93465909090909  Z " fill-rule="nonzero" fill="#ff9933" stroke="none" transform="matrix(1 0 0 1 62 349 )" />
  </g>
</svg>