<?xml version="1.0" encoding="utf-8"?>
<svg version="1.1" xmlns:xlink="http://www.w3.org/1999/xlink" width="31px" height="30px" xmlns="http://www.w3.org/2000/svg">
  <g transform="matrix(1 0 0 1 -338 -347 )">
    <path d="M 8.40087890625 8.35431654676259  C 8.65315755208333 8.06055155875299  8.779296875 7.66786570743405  8.779296875 7.17625899280575  C 8.779296875 6.68465227817745  8.65315755208333 6.28896882494005  8.40087890625 5.98920863309352  C 8.14860026041667 5.689448441247  7.81559244791667 5.53956834532374  7.40185546875 5.53956834532374  C 6.96793619791667 5.53956834532374  6.58447265625 5.69244604316547  6.25146484375 5.99820143884892  C 5.91845703125 6.30395683453238  5.751953125 6.69664268585132  5.751953125 7.17625899280575  C 5.751953125 7.64388489208633  5.91845703125 8.03057553956835  6.25146484375 8.3363309352518  C 6.58447265625 8.64208633093525  6.96793619791667 8.79496402877698  7.40185546875 8.79496402877698  C 7.81559244791667 8.79496402877698  8.14860026041667 8.64808153477218  8.40087890625 8.35431654676259  Z M 19.639892578125 17.2122302158273  C 19.897216796875 16.9484412470024  20.02587890625 16.6426858513189  20.02587890625 16.294964028777  C 20.02587890625 15.9592326139089  19.897216796875 15.6594724220624  19.639892578125 15.3956834532374  C 19.382568359375 15.1318944844125  19.0520833333333 15  18.6484375 15  C 18.3759765625 15  18.126220703125 15.1348920863309  17.899169921875 15.4046762589928  C 17.672119140625 15.6744604316547  17.55859375 15.9712230215827  17.55859375 16.294964028777  C 17.55859375 16.6306954436451  17.672119140625 16.9334532374101  17.899169921875 17.2032374100719  C 18.126220703125 17.4730215827338  18.3759765625 17.6079136690648  18.6484375 17.6079136690648  C 19.0520833333333 17.6079136690648  19.382568359375 17.4760191846523  19.639892578125 17.2122302158273  Z M 16.082763671875 8.35431654676259  C 16.3299967447917 8.06055155875299  16.45361328125 7.66786570743405  16.45361328125 7.17625899280575  C 16.45361328125 6.68465227817745  16.3299967447917 6.28896882494005  16.082763671875 5.98920863309352  C 15.8355305989583 5.689448441247  15.5050455729167 5.53956834532374  15.09130859375 5.53956834532374  C 14.6573893229167 5.53956834532374  14.27392578125 5.69244604316547  13.94091796875 5.99820143884892  C 13.60791015625 6.30395683453238  13.44140625 6.69664268585132  13.44140625 7.17625899280575  C 13.44140625 7.64388489208633  13.60791015625 8.03057553956835  13.94091796875 8.3363309352518  C 14.27392578125 8.64208633093525  14.6573893229167 8.79496402877698  15.09130859375 8.79496402877698  C 15.5050455729167 8.79496402877698  15.8355305989583 8.64808153477218  16.082763671875 8.35431654676259  Z M 25.671875 17.2122302158273  C 25.9342447916667 16.9484412470024  26.0654296875 16.6426858513189  26.0654296875 16.294964028777  C 26.0654296875 15.9592326139089  25.9342447916667 15.6594724220624  25.671875 15.3956834532374  C 25.4095052083333 15.1318944844125  25.08154296875 15  24.68798828125 15  C 24.41552734375 15  24.165771484375 15.1348920863309  23.938720703125 15.4046762589928  C 23.711669921875 15.6744604316547  23.59814453125 15.9712230215827  23.59814453125 16.294964028777  C 23.59814453125 16.6306954436451  23.711669921875 16.9334532374101  23.938720703125 17.2032374100719  C 24.165771484375 17.4730215827338  24.41552734375 17.6079136690648  24.68798828125 17.6079136690648  C 25.08154296875 17.6079136690648  25.4095052083333 17.4760191846523  25.671875 17.2122302158273  Z M 19.972900390625 4.46942446043165  C 21.0375162760417 5.86630695443645  21.7262369791667 7.42805755395684  22.0390625 9.15467625899281  C 21.7262369791667 9.10671462829736  21.373046875 9.08273381294964  20.9794921875 9.08273381294964  C 19.2740885416667 9.08273381294964  17.7049153645833 9.54436450839328  16.27197265625 10.4676258992806  C 14.8390299479167 11.3908872901679  13.7113444010417 12.6408872901679  12.888916015625 14.2176258992806  C 12.0664876302083 15.7943645083933  11.6552734375 17.5179856115108  11.6552734375 19.3884892086331  C 11.6552734375 20.3237410071942  11.7713216145833 21.2350119904077  12.00341796875 22.1223021582734  C 11.6502278645833 22.158273381295  11.30712890625 22.1762589928058  10.97412109375 22.1762589928058  C 10.7117513020833 22.1762589928058  10.45947265625 22.1672661870504  10.21728515625 22.1492805755396  C 9.97509765625 22.1312949640288  9.69759114583333 22.0923261390887  9.384765625 22.0323741007194  C 9.07194010416667 21.9724220623501  8.847412109375 21.9304556354916  8.711181640625 21.9064748201439  C 8.574951171875 21.8824940047962  8.29996744791667 21.8195443645084  7.88623046875 21.7176258992806  C 7.47249348958333 21.6157074340528  7.22021484375 21.552757793765  7.12939453125 21.5287769784173  L 3.2998046875 23.8129496402878  L 4.3896484375 19.8920863309353  C 1.46321614583333 17.4580335731415  0 14.5203836930456  0 11.0791366906475  C 0 9.05275779376499  0.491943359375 7.18824940047961  1.475830078125 5.48561151079137  C 2.459716796875 3.78297362110312  3.791748046875 2.44304556354916  5.471923828125 1.4658273381295  C 7.152099609375 0.48860911270983  8.98616536458333 0  10.97412109375 0  C 12.7501627604167 0  14.4278157552083 0.395683453237411  16.007080078125 1.18705035971223  C 17.5863444010417 1.97841726618705  18.9082845052083 3.07254196642686  19.972900390625 4.46942446043165  Z M 29.705810546875 14.5053956834532  C 30.568603515625 15.9622302158273  31 17.5419664268585  31 19.2446043165468  C 31 20.6474820143885  30.6543782552083 21.9874100719424  29.963134765625 23.2643884892086  C 29.2718912760417 24.5413669064748  28.3359375 25.7014388489209  27.1552734375 26.7446043165468  L 27.98779296875 30  L 24.9755859375 28.0395683453237  C 23.4619140625 28.4832134292566  22.3619791666667 28.705035971223  21.67578125 28.705035971223  C 19.9703776041667 28.705035971223  18.4012044270833 28.2823741007194  16.96826171875 27.4370503597122  C 15.5353190104167 26.591726618705  14.4076334635417 25.4436450839329  13.585205078125 23.9928057553957  C 12.7627766927083 22.5419664268585  12.3515625 20.9592326139089  12.3515625 19.2446043165468  C 12.3515625 17.5299760191847  12.7627766927083 15.947242206235  13.585205078125 14.4964028776978  C 14.4076334635417 13.0455635491607  15.5353190104167 11.8974820143885  16.96826171875 11.0521582733813  C 18.4012044270833 10.2068345323741  19.9703776041667 9.7841726618705  21.67578125 9.7841726618705  C 23.3004557291667 9.7841726618705  24.8292643229167 10.2068345323741  26.26220703125 11.0521582733813  C 27.6951497395833 11.8974820143885  28.843017578125 13.0485611510791  29.705810546875 14.5053956834532  Z " fill-rule="nonzero" fill="#33cc33" stroke="none" transform="matrix(1 0 0 1 338 347 )" />
  </g>
</svg>