<?xml version="1.0" encoding="utf-8"?>
<svg version="1.1" xmlns:xlink="http://www.w3.org/1999/xlink" width="197px" height="45px" xmlns="http://www.w3.org/2000/svg">
  <g>
    <path d="M 179.238567499428 0.5  C 179.238567499428 0.5  182.741056998721 0.900030526568977  182.741056998721 0.900030526568977  C 182.741056998721 0.900030526568977  196.459586833545 22.5  196.459586833545 22.5  C 196.459586833545 22.5  182.741056998721 44.099969473431  182.741056998721 44.099969473431  C 182.741056998721 44.099969473431  179.238567499428 44.5  179.238567499428 44.5  C 179.238567499428 44.5  0.500000000000012 44.5  0.500000000000012 44.5  C 0.500000000000012 44.5  0.5 0.499999999999998  0.5 0.499999999999998  C 0.5 0.499999999999998  179.238567499428 0.5  179.238567499428 0.5  Z " fill-rule="nonzero" fill="#ffffff" stroke="none" />
    <path d="M 179.238567499428 0.5  C 179.238567499428 0.5  182.741056998721 0.900030526568977  182.741056998721 0.900030526568977  C 182.741056998721 0.900030526568977  196.459586833545 22.5  196.459586833545 22.5  C 196.459586833545 22.5  182.741056998721 44.099969473431  182.741056998721 44.099969473431  C 182.741056998721 44.099969473431  179.238567499428 44.5  179.238567499428 44.5  C 179.238567499428 44.5  0.500000000000012 44.5  0.500000000000012 44.5  C 0.500000000000012 44.5  0.5 0.499999999999998  0.5 0.499999999999998  C 0.5 0.499999999999998  179.238567499428 0.5  179.238567499428 0.5  Z " stroke-width="1" stroke="#f2f2f2" fill="none" />
  </g>
</svg>