<?xml version="1.0" encoding="utf-8"?>
<svg version="1.1" xmlns:xlink="http://www.w3.org/1999/xlink" width="30px" height="30px" xmlns="http://www.w3.org/2000/svg">
  <g transform="matrix(1 0 0 1 -10 -154 )">
    <path d="M 8.12871287128713 8.12871287128713  C 8.62376237623762 7.63366336633663  8.87128712871287 7.03630363036303  8.87128712871287 6.33663366336634  C 8.87128712871287 5.63696369636963  8.62376237623762 5.03960396039604  8.12871287128713 4.54455445544555  C 7.63366336633663 4.04950495049505  7.03630363036304 3.8019801980198  6.33663366336634 3.8019801980198  C 5.63696369636964 3.8019801980198  5.03960396039604 4.04950495049505  4.54455445544554 4.54455445544555  C 4.04950495049505 5.03960396039604  3.8019801980198 5.63696369636963  3.8019801980198 6.33663366336634  C 3.8019801980198 7.03630363036303  4.04950495049505 7.63366336633663  4.54455445544554 8.12871287128713  C 5.03960396039604 8.62376237623762  5.63696369636964 8.87128712871287  6.33663366336634 8.87128712871287  C 7.03630363036304 8.87128712871287  7.63366336633663 8.62376237623762  8.12871287128713 8.12871287128713  Z M 29.2673267326733 15.9405940594059  C 29.7557755775578 16.4554455445545  30 17.0561056105611  30 17.7425742574257  C 30 18.4422442244224  29.7557755775578 19.036303630363  29.2673267326733 19.5247524752475  L 19.5445544554455 29.2673267326733  C 19.029702970297 29.7557755775578  18.4290429042904 30  17.7425742574257 30  C 17.042904290429 30  16.4488448844885 29.7557755775578  15.960396039604 29.2673267326733  L 1.8019801980198 15.0891089108911  C 1.3003300330033 14.6006600660066  0.874587458745875 13.9339933993399  0.524752475247525 13.0891089108911  C 0.174917491749175 12.2442244224422  0 11.4719471947195  0 10.7722772277228  L 0 2.53465346534653  C 0 1.84818481848185  0.250825082508251 1.25412541254125  0.752475247524752 0.752475247524751  C 1.25412541254125 0.250825082508248  1.84818481848185 0  2.53465346534653 0  L 10.7722772277228 0  C 11.4719471947195 0  12.2442244224422 0.174917491749172  13.0891089108911 0.524752475247524  C 13.9339933993399 0.874587458745872  14.6072607260726 1.3003300330033  15.1089108910891 1.8019801980198  L 29.2673267326733 15.9405940594059  Z " fill-rule="nonzero" fill="#000000" stroke="none" transform="matrix(1 0 0 1 10 154 )" />
  </g>
</svg>