<?xml version="1.0" encoding="utf-8"?>
<svg version="1.1" xmlns:xlink="http://www.w3.org/1999/xlink" width="12px" height="12px" viewBox="173 359  12 12" xmlns="http://www.w3.org/2000/svg">
  <path d="M 179 359  C 182.36 359  185 361.64  185 365  C 185 368.36  182.36 371  179 371  C 175.64 371  173 368.36  173 365  C 173 361.64  175.64 359  179 359  Z " fill-rule="nonzero" fill="#ffffff" stroke="none" />
  <path d="M 179 359.5  C 182.08 359.5  184.5 361.92  184.5 365  C 184.5 368.08  182.08 370.5  179 370.5  C 175.92 370.5  173.5 368.08  173.5 365  C 173.5 361.92  175.92 359.5  179 359.5  Z " stroke-width="1" stroke="#797979" fill="none" />
  <path d="M 179 368  C 177.32 368  176 366.68  176 365  C 176 363.32  177.32 362  179 362  C 180.68 362  182 363.32  182 365  C 182 366.68  180.68 368  179 368  " fill-rule="nonzero" fill="#797979" stroke="none" />
</svg>