<?xml version="1.0" encoding="utf-8"?>
<svg version="1.1" xmlns:xlink="http://www.w3.org/1999/xlink" width="12px" height="12px" viewBox="173 316  12 12" xmlns="http://www.w3.org/2000/svg">
  <path d="M 179 316  C 182.36 316  185 318.64  185 322  C 185 325.36  182.36 328  179 328  C 175.64 328  173 325.36  173 322  C 173 318.64  175.64 316  179 316  Z " fill-rule="nonzero" fill="#f0f0f0" stroke="none" />
  <path d="M 179 316.5  C 182.08 316.5  184.5 318.92  184.5 322  C 184.5 325.08  182.08 327.5  179 327.5  C 175.92 327.5  173.5 325.08  173.5 322  C 173.5 318.92  175.92 316.5  179 316.5  Z " stroke-width="1" stroke="#797979" fill="none" />
  <path d="M 179 325  C 177.32 325  176 323.68  176 322  C 176 320.32  177.32 319  179 319  C 180.68 319  182 320.32  182 322  C 182 323.68  180.68 325  179 325  " fill-rule="nonzero" fill="#797979" stroke="none" />
</svg>