<?xml version="1.0" encoding="utf-8"?>
<svg version="1.1" xmlns:xlink="http://www.w3.org/1999/xlink" width="12px" height="12px" viewBox="173 184  12 12" xmlns="http://www.w3.org/2000/svg">
  <path d="M 179 184  C 182.36 184  185 186.64  185 190  C 185 193.36  182.36 196  179 196  C 175.64 196  173 193.36  173 190  C 173 186.64  175.64 184  179 184  Z " fill-rule="nonzero" fill="#f0f0f0" stroke="none" />
  <path d="M 179 184.5  C 182.08 184.5  184.5 186.92  184.5 190  C 184.5 193.08  182.08 195.5  179 195.5  C 175.92 195.5  173.5 193.08  173.5 190  C 173.5 186.92  175.92 184.5  179 184.5  Z " stroke-width="1" stroke="#797979" fill="none" />
  <path d="M 179 193  C 177.32 193  176 191.68  176 190  C 176 188.32  177.32 187  179 187  C 180.68 187  182 188.32  182 190  C 182 191.68  180.68 193  179 193  " fill-rule="nonzero" fill="#797979" stroke="none" />
</svg>