<?xml version="1.0" encoding="utf-8"?>
<svg version="1.1" xmlns:xlink="http://www.w3.org/1999/xlink" width="12px" height="24px" xmlns="http://www.w3.org/2000/svg">
  <g transform="matrix(1 0 0 1 -378 -126 )">
    <path d="M 12 12  C 12 12.258064516129  11.9266409266409 12.4813895781638  11.7799227799228 12.6699751861042  L 3.18532818532819 23.7171215880893  C 3.03861003861004 23.9057071960298  2.86486486486487 24  2.66409266409266 24  C 2.46332046332046 24  2.28957528957529 23.9057071960298  2.14285714285714 23.7171215880893  L 0.22007722007722 21.2456575682382  C 0.0733590733590735 21.0570719602978  0 20.833746898263  0 20.575682382134  C 0 20.317617866005  0.0733590733590735 20.0942928039702  0.22007722007722 19.9057071960298  L 6.37065637065637 12  L 0.22007722007722 4.09429280397022  C 0.0733590733590735 3.90570719602977  0 3.68238213399504  0 3.424317617866  C 0 3.16625310173697  0.0733590733590735 2.94292803970223  0.22007722007722 2.75434243176179  L 2.14285714285714 0.282878411910669  C 2.28957528957529 0.0942928039702222  2.46332046332046 0  2.66409266409266 0  C 2.86486486486487 0  3.03861003861004 0.0942928039702222  3.18532818532819 0.282878411910669  L 11.7799227799228 11.3300248138958  C 11.9266409266409 11.5186104218362  12 11.741935483871  12 12  Z " fill-rule="nonzero" fill="#cccccc" stroke="none" transform="matrix(1 0 0 1 378 126 )" />
  </g>
</svg>