<?xml version="1.0" encoding="utf-8"?>
<svg version="1.1" xmlns:xlink="http://www.w3.org/1999/xlink" width="181px" height="10px" preserveAspectRatio="xMinYMid meet" viewBox="707 765  181 8" xmlns="http://www.w3.org/2000/svg">
  <path d="M 888 769  L 867 769  A 3 3 0 0 0 864 766 A 3 3 0 0 0 861 769 L 799 769  A 3 3 0 0 0 796 766 A 3 3 0 0 0 793 769 L 743.493506493505 769  A 3 3 0 0 0 740.493506493505 766 A 3 3 0 0 0 737.493506493505 769 L 717 769  A 5 5 0 0 1 712 764 L 712 711  A 5 5 0 0 0 707 706 L 459 706  " stroke-width="2" stroke="#0099cc" fill="none" />
</svg>