<?xml version="1.0" encoding="utf-8"?>
<svg version="1.1" xmlns:xlink="http://www.w3.org/1999/xlink" width="30px" height="23px" xmlns="http://www.w3.org/2000/svg">
  <g transform="matrix(1 0 0 1 -10 -14 )">
    <path d="M 13.5036057692308 1.9732770745429  C 13.7319711538462 2.17815283638068  13.8461538461538 2.42076887013596  14 2.70112517580872  L 14 20.2988748241913  C 13.8461538461538 20.579231129864  13.7319711538462 20.8218471636193  13.5036057692308 21.0267229254571  C 13.2752403846154 21.2315986872949  13.0048076923077 21.3340365682138  12.6923076923077 21.3340365682138  C 12.3798076923077 21.3340365682138  12.109375 21.2315986872949  11.8810096153846 21.0267229254571  L 5.87740384615385 15.64064697609  L 1.15384615384615 15.64064697609  C 0.841346153846154 15.64064697609  0.570913461538462 15.5382090951711  0.342548076923077 15.3333333333333  C 0.114182692307692 15.1284575714955  0 14.8858415377403  0 14.6054852320675  L 0 8.39451476793249  C 0 8.11415846225973  0.114182692307692 7.87154242850445  0.342548076923077 7.66666666666667  C 0.570913461538462 7.46179090482888  0.841346153846154 7.35935302390999  1.15384615384615 7.35935302390999  L 5.87740384615385 7.35935302390999  L 11.8810096153846 1.9732770745429  C 12.109375 1.76840131270511  12.3798076923077 1.66596343178622  12.6923076923077 1.66596343178622  C 13.0048076923077 1.66596343178622  13.2752403846154 1.76840131270511  13.5036057692308 1.9732770745429  Z M 20.0030048076923 9.20323488045007  C 20.5138221153846 9.91490857946554  20.7692307692308 10.6804969526488  20.7692307692308 11.5  C 20.7692307692308 12.3195030473511  20.5138221153846 13.0823956868261  20.0030048076923 13.7886779184248  C 19.4921875 14.4949601500234  18.8161057692308 14.9990623534927  17.9747596153846 15.3009845288326  C 17.8545673076923 15.3548992030005  17.7043269230769 15.3818565400844  17.5240384615385 15.3818565400844  C 17.2115384615385 15.3818565400844  16.9411057692308 15.2821143928739  16.7127403846154 15.0826300984529  C 16.484375 14.8831458040319  16.3701923076923 14.6378340365682  16.3701923076923 14.3466947960619  C 16.3701923076923 14.120253164557  16.4423076923077 13.9288560712611  16.5865384615385 13.7725035161744  C 16.7307692307692 13.6161509610877  16.9050480769231 13.4813642756681  17.109375 13.3681434599156  C 17.3137019230769 13.2549226441632  17.5180288461538 13.1309188935771  17.7223557692308 12.9961322081575  C 17.9266826923077 12.8613455227379  18.1009615384615 12.6672526957337  18.2451923076923 12.4138537271449  C 18.3894230769231 12.160454758556  18.4615384615385 11.8558368495077  18.4615384615385 11.5  C 18.4615384615385 11.1441631504923  18.3894230769231 10.839545241444  18.2451923076923 10.5861462728551  C 18.1009615384615 10.3327473042663  17.9266826923077 10.1386544772621  17.7223557692308 10.0038677918425  C 17.5180288461538 9.86908110642288  17.3137019230769 9.74507735583685  17.109375 9.63185654008439  C 16.9050480769231 9.51863572433193  16.7307692307692 9.38384903891233  16.5865384615385 9.2274964838256  C 16.4423076923077 9.07114392873886  16.3701923076923 8.87974683544304  16.3701923076923 8.65330520393812  C 16.3701923076923 8.36216596343179  16.484375 8.11685419596812  16.7127403846154 7.91736990154712  C 16.9411057692308 7.71788560712611  17.2115384615385 7.61814345991561  17.5240384615385 7.61814345991561  C 17.7043269230769 7.61814345991561  17.8545673076923 7.64510079699953  17.9747596153846 7.69901547116737  C 18.8161057692308 7.9901547116737  19.4921875 8.4915611814346  20.0030048076923 9.20323488045007  Z M 23.8521634615385 6.93073136427567  C 24.8737980769231 8.32712142522269  25.3846153846154 9.85021097046413  25.3846153846154 11.5  C 25.3846153846154 13.1497890295359  24.8737980769231 14.6728785747773  23.8521634615385 16.0692686357243  C 22.8305288461539 17.4656586966714  21.4783653846154 18.4819503047351  19.7956730769231 19.1181434599156  C 19.6394230769231 19.1720581340835  19.4891826923077 19.1990154711674  19.3449519230769 19.1990154711674  C 19.0204326923077 19.1990154711674  18.7439903846154 19.0965775902485  18.515625 18.8917018284107  C 18.2872596153846 18.6868260665729  18.1730769230769 18.4442100328176  18.1730769230769 18.1638537271449  C 18.1730769230769 17.7433192686357  18.4074519230769 17.4252226910455  18.8762019230769 17.2095639943741  C 19.5492788461539 16.8968588842007  20.0060096153846 16.6596343178622  20.2463942307692 16.4978902953587  C 21.1358173076923 15.915611814346  21.8299278846154 15.1850679793718  22.3287259615385 14.306258790436  C 22.8275240384615 13.4274496015002  23.0769230769231 12.4920300046882  23.0769230769231 11.5  C 23.0769230769231 10.5079699953118  22.8275240384615 9.57255039849976  22.3287259615385 8.69374120956399  C 21.8299278846154 7.81493202062822  21.1358173076923 7.08438818565401  20.2463942307692 6.50210970464135  C 20.0060096153846 6.34036568213783  19.5492788461539 6.10314111579934  18.8762019230769 5.79043600562588  C 18.4074519230769 5.57477730895452  18.1730769230769 5.25668073136428  18.1730769230769 4.83614627285513  C 18.1730769230769 4.55578996718237  18.2872596153846 4.3131739334271  18.515625 4.10829817158931  C 18.7439903846154 3.90342240975152  19.0144230769231 3.80098452883263  19.3269230769231 3.80098452883263  C 19.4831730769231 3.80098452883263  19.6394230769231 3.82794186591655  19.7956730769231 3.88185654008439  C 21.4783653846154 4.51804969526488  22.8305288461539 5.53434130332864  23.8521634615385 6.93073136427567  Z M 27.7103365384615 4.66631504922644  C 29.2367788461538 6.74203000468823  30 9.01992498827942  30 11.5  C 30 13.9800750117206  29.2367788461538 16.2579699953118  27.7103365384615 18.3336849507736  C 26.1838942307692 20.4093999062354  24.1526442307692 21.9378809188936  21.6165865384615 22.9191279887482  C 21.4603365384615 22.9730426629161  21.3040865384615 23  21.1478365384615 23  C 20.8353365384615 23  20.5649038461538 22.8975621190811  20.3365384615385 22.6926863572433  C 20.1081730769231 22.4878105954055  19.9939903846154 22.2451945616503  19.9939903846154 21.9648382559775  C 19.9939903846154 21.5766526019691  20.2283653846154 21.2585560243788  20.6971153846154 21.0105485232068  C 20.78125 20.9674167838725  20.9164663461538 20.9108063759962  21.1027644230769 20.8407172995781  C 21.2890625 20.7706282231599  21.4242788461539 20.7140178152836  21.5084134615385 20.6708860759494  C 22.0612980769231 20.4013127051102  22.5540865384615 20.1263478668542  22.9867788461538 19.8459915611814  C 24.4651442307692 18.8647444913268  25.6189903846154 17.6408813877168  26.4483173076923 16.1744022503516  C 27.2776442307692 14.7079231129864  27.6923076923077 13.1497890295359  27.6923076923077 11.5  C 27.6923076923077 9.85021097046413  27.2776442307692 8.2920768870136  26.4483173076923 6.82559774964838  C 25.6189903846154 5.35911861228317  24.4651442307692 4.13525550867323  22.9867788461538 3.15400843881857  C 22.5540865384615 2.8736521331458  22.0612980769231 2.59868729488982  21.5084134615385 2.32911392405063  C 21.4242788461539 2.28598218471636  21.2890625 2.22937177684013  21.1027644230769 2.15928270042194  C 20.9164663461538 2.08919362400375  20.78125 2.03258321612752  20.6971153846154 1.98945147679325  C 20.2283653846154 1.74144397562119  19.9939903846154 1.42334739803094  19.9939903846154 1.0351617440225  C 19.9939903846154 0.754805438349739  20.1081730769231 0.512189404594466  20.3365384615385 0.30731364275668  C 20.5649038461538 0.102437880918893  20.8353365384615 0  21.1478365384615 0  C 21.3040865384615 0  21.4603365384615 0.0269573370839179  21.6165865384615 0.0808720112517588  C 24.1526442307692 1.06211908110642  26.1838942307692 2.59060009376465  27.7103365384615 4.66631504922644  Z " fill-rule="nonzero" fill="#000000" stroke="none" transform="matrix(1 0 0 1 10 14 )" />
  </g>
</svg>