<?xml version="1.0" encoding="utf-8"?>
<svg version="1.1" xmlns:xlink="http://www.w3.org/1999/xlink" width="33px" height="30px" xmlns="http://www.w3.org/2000/svg">
  <g transform="matrix(1 0 0 1 -24 -197 )">
    <path d="M 15.90380859375 21.669921875  C 16.30126953125 21.1165364583333  16.5 20.4231770833333  16.5 19.58984375  C 16.5 18.7565104166667  16.45166015625 17.9915364583333  16.35498046875 17.294921875  C 16.25830078125 16.5983072916667  16.099853515625 15.927734375  15.879638671875 15.283203125  C 15.659423828125 14.638671875  15.33447265625 14.130859375  14.90478515625 13.759765625  C 14.47509765625 13.388671875  13.9541015625 13.203125  13.341796875 13.203125  C 13.27734375 13.2552083333333  13.1162109375 13.3723958333333  12.8583984375 13.5546875  C 12.6005859375 13.7369791666667  12.399169921875 13.876953125  12.254150390625 13.974609375  C 12.109130859375 14.072265625  11.91845703125 14.1861979166667  11.68212890625 14.31640625  C 11.44580078125 14.4466145833333  11.21484375 14.541015625  10.9892578125 14.599609375  C 10.763671875 14.658203125  10.5380859375 14.6875  10.3125 14.6875  C 10.0869140625 14.6875  9.861328125 14.658203125  9.6357421875 14.599609375  C 9.41015625 14.541015625  9.17919921875 14.4466145833333  8.94287109375 14.31640625  C 8.70654296875 14.1861979166667  8.515869140625 14.072265625  8.370849609375 13.974609375  C 8.225830078125 13.876953125  8.0244140625 13.7369791666667  7.7666015625 13.5546875  C 7.5087890625 13.3723958333333  7.34765625 13.2552083333333  7.283203125 13.203125  C 6.6708984375 13.203125  6.14990234375 13.388671875  5.72021484375 13.759765625  C 5.29052734375 14.130859375  4.965576171875 14.638671875  4.745361328125 15.283203125  C 4.525146484375 15.927734375  4.36669921875 16.5983072916667  4.27001953125 17.294921875  C 4.17333984375 17.9915364583333  4.125 18.7565104166667  4.125 19.58984375  C 4.125 20.4231770833333  4.32373046875 21.1165364583333  4.72119140625 21.669921875  C 5.11865234375 22.2233072916667  5.607421875 22.5  6.1875 22.5  L 14.4375 22.5  C 15.017578125 22.5  15.50634765625 22.2233072916667  15.90380859375 21.669921875  Z M 12.898681640625 12.568359375  C 13.613037109375 11.7024739583333  13.97021484375 10.6575520833333  13.97021484375 9.43359375  C 13.97021484375 8.20963541666666  13.613037109375 7.16471354166667  12.898681640625 6.298828125  C 12.184326171875 5.43294270833333  11.322265625 5  10.3125 5  C 9.302734375 5  8.440673828125 5.43294270833333  7.726318359375 6.298828125  C 7.011962890625 7.16471354166667  6.65478515625 8.20963541666666  6.65478515625 9.43359375  C 6.65478515625 10.6575520833333  7.011962890625 11.7024739583333  7.726318359375 12.568359375  C 8.440673828125 13.4342447916667  9.302734375 13.8671875  10.3125 13.8671875  C 11.322265625 13.8671875  12.184326171875 13.4342447916667  12.898681640625 12.568359375  Z M 28.72998046875 19.82421875  C 28.82666015625 19.70703125  28.875 19.5572916666667  28.875 19.375  L 28.875 18.125  C 28.875 17.9427083333333  28.82666015625 17.79296875  28.72998046875 17.67578125  C 28.63330078125 17.55859375  28.509765625 17.5  28.359375 17.5  L 19.078125 17.5  C 18.927734375 17.5  18.80419921875 17.55859375  18.70751953125 17.67578125  C 18.61083984375 17.79296875  18.5625 17.9427083333333  18.5625 18.125  L 18.5625 19.375  C 18.5625 19.5572916666667  18.61083984375 19.70703125  18.70751953125 19.82421875  C 18.80419921875 19.94140625  18.927734375 20  19.078125 20  L 28.359375 20  C 28.509765625 20  28.63330078125 19.94140625  28.72998046875 19.82421875  Z M 28.705810546875 14.794921875  C 28.818603515625 14.658203125  28.875 14.4921875  28.875 14.296875  L 28.875 13.203125  C 28.875 13.0078125  28.818603515625 12.841796875  28.705810546875 12.705078125  C 28.593017578125 12.568359375  28.4560546875 12.5  28.294921875 12.5  L 19.142578125 12.5  C 18.9814453125 12.5  18.844482421875 12.568359375  18.731689453125 12.705078125  C 18.618896484375 12.841796875  18.5625 13.0078125  18.5625 13.203125  L 18.5625 14.296875  C 18.5625 14.4921875  18.618896484375 14.658203125  18.731689453125 14.794921875  C 18.844482421875 14.931640625  18.9814453125 15  19.142578125 15  L 28.294921875 15  C 28.4560546875 15  28.593017578125 14.931640625  28.705810546875 14.794921875  Z M 28.72998046875 9.82421875  C 28.82666015625 9.70703125  28.875 9.55729166666666  28.875 9.375  L 28.875 8.125  C 28.875 7.94270833333333  28.82666015625 7.79296875  28.72998046875 7.67578125  C 28.63330078125 7.55859375  28.509765625 7.5  28.359375 7.5  L 19.078125 7.5  C 18.927734375 7.5  18.80419921875 7.55859375  18.70751953125 7.67578125  C 18.61083984375 7.79296875  18.5625 7.94270833333333  18.5625 8.125  L 18.5625 9.375  C 18.5625 9.55729166666666  18.61083984375 9.70703125  18.70751953125 9.82421875  C 18.80419921875 9.94140625  18.927734375 10  19.078125 10  L 28.359375 10  C 28.509765625 10  28.63330078125 9.94140625  28.72998046875 9.82421875  Z M 32.24267578125 0.917968750000001  C 32.74755859375 1.52994791666667  33 2.265625  33 3.125  L 33 26.875  C 33 27.734375  32.74755859375 28.4700520833333  32.24267578125 29.08203125  C 31.73779296875 29.6940104166667  31.130859375 30  30.421875 30  L 24.75 30  L 24.75 28.125  C 24.75 27.9427083333333  24.70166015625 27.79296875  24.60498046875 27.67578125  C 24.50830078125 27.55859375  24.384765625 27.5  24.234375 27.5  L 23.203125 27.5  C 23.052734375 27.5  22.92919921875 27.55859375  22.83251953125 27.67578125  C 22.73583984375 27.79296875  22.6875 27.9427083333333  22.6875 28.125  L 22.6875 30  L 10.3125 30  L 10.3125 28.125  C 10.3125 27.9427083333333  10.26416015625 27.79296875  10.16748046875 27.67578125  C 10.07080078125 27.55859375  9.947265625 27.5  9.796875 27.5  L 8.765625 27.5  C 8.615234375 27.5  8.49169921875 27.55859375  8.39501953125 27.67578125  C 8.29833984375 27.79296875  8.25 27.9427083333333  8.25 28.125  L 8.25 30  L 2.578125 30  C 1.869140625 30  1.26220703125 29.6940104166667  0.75732421875 29.08203125  C 0.25244140625 28.4700520833333  0 27.734375  0 26.875  L 0 3.125  C 0 2.265625  0.25244140625 1.52994791666667  0.75732421875 0.917968750000001  C 1.26220703125 0.30598958333333  1.869140625 0  2.578125 0  L 30.421875 0  C 31.130859375 0  31.73779296875 0.30598958333333  32.24267578125 0.917968750000001  Z " fill-rule="nonzero" fill="#000000" stroke="none" transform="matrix(1 0 0 1 24 197 )" />
  </g>
</svg>