<?xml version="1.0" encoding="utf-8"?>
<svg version="1.1" xmlns:xlink="http://www.w3.org/1999/xlink" width="23px" height="31px" xmlns="http://www.w3.org/2000/svg">
  <g transform="matrix(1 0 0 1 -29 -299 )">
    <path d="M 2.084375 0  L 20.915625 0  C 21.1911458333333 0  21.4546875 0.0614672835426311  21.70625 0.184401850627893  C 22.1015625 0.361974003084375  22.416015625 0.641991628111917  22.649609375 1.02445472571051  C 22.883203125 1.4069178233091  23 1.83035910993611  23 2.29477858559154  L 23 28.7052214144085  C 23 29.1696408900639  22.883203125 29.5930821766909  22.649609375 29.9755452742895  C 22.416015625 30.3580083718881  22.1015625 30.6380259969156  21.70625 30.8155981493721  C 21.4786458333333 30.9248733201146  21.2151041666667 30.9795109054858  20.915625 30.9795109054858  C 20.340625 30.9795109054858  19.8434895833333 30.7609605640009  19.42421875 30.3238598810311  L 11.5 21.6364838070059  L 3.57578125 30.3238598810311  C 3.14453125 30.7746199603437  2.64739583333333 31  2.084375 31  C 1.80885416666667 31  1.5453125 30.9385327164574  1.29375 30.8155981493721  C 0.8984375 30.6380259969156  0.583984375 30.3580083718881  0.350390625 29.9755452742895  C 0.116796875 29.5930821766909  0 29.1696408900639  0 28.7052214144085  L 0 2.29477858559154  C 0 1.83035910993611  0.116796875 1.4069178233091  0.350390625 1.02445472571051  C 0.583984375 0.641991628111917  0.8984375 0.361974003084375  1.29375 0.184401850627893  C 1.5453125 0.0614672835426311  1.80885416666667 0  2.084375 0  Z " fill-rule="nonzero" fill="#000000" stroke="none" transform="matrix(1 0 0 1 29 299 )" />
  </g>
</svg>