<?xml version="1.0" encoding="utf-8"?>
<svg version="1.1" xmlns:xlink="http://www.w3.org/1999/xlink" width="27px" height="39px" xmlns="http://www.w3.org/2000/svg">
  <g transform="matrix(1 0 0 1 -47 -395 )">
    <path d="M 26.5546875 15.4453125  C 26.8515625 15.7421875  27 16.09375  27 16.5  L 27 19.5  C 27 22.953125  25.84765625 25.95703125  23.54296875 28.51171875  C 21.23828125 31.06640625  18.390625 32.53125  15 32.90625  L 15 36  L 21 36  C 21.40625 36  21.7578125 36.1484375  22.0546875 36.4453125  C 22.3515625 36.7421875  22.5 37.09375  22.5 37.5  C 22.5 37.90625  22.3515625 38.2578125  22.0546875 38.5546875  C 21.7578125 38.8515625  21.40625 39  21 39  L 6 39  C 5.59375 39  5.2421875 38.8515625  4.9453125 38.5546875  C 4.6484375 38.2578125  4.5 37.90625  4.5 37.5  C 4.5 37.09375  4.6484375 36.7421875  4.9453125 36.4453125  C 5.2421875 36.1484375  5.59375 36  6 36  L 12 36  L 12 32.90625  C 8.609375 32.53125  5.76171875 31.06640625  3.45703125 28.51171875  C 1.15234375 25.95703125  0 22.953125  0 19.5  L 0 16.5  C 0 16.09375  0.1484375 15.7421875  0.4453125 15.4453125  C 0.7421875 15.1484375  1.09375 15  1.5 15  C 1.90625 15  2.2578125 15.1484375  2.5546875 15.4453125  C 2.8515625 15.7421875  3 16.09375  3 16.5  L 3 19.5  C 3 22.390625  4.02734375 24.86328125  6.08203125 26.91796875  C 8.13671875 28.97265625  10.609375 30  13.5 30  C 16.390625 30  18.86328125 28.97265625  20.91796875 26.91796875  C 22.97265625 24.86328125  24 22.390625  24 19.5  L 24 16.5  C 24 16.09375  24.1484375 15.7421875  24.4453125 15.4453125  C 24.7421875 15.1484375  25.09375 15  25.5 15  C 25.90625 15  26.2578125 15.1484375  26.5546875 15.4453125  Z M 18.796875 2.203125  C 20.265625 3.671875  21 5.4375  21 7.5  L 21 19.5  C 21 21.5625  20.265625 23.328125  18.796875 24.796875  C 17.328125 26.265625  15.5625 27  13.5 27  C 11.4375 27  9.671875 26.265625  8.203125 24.796875  C 6.734375 23.328125  6 21.5625  6 19.5  L 6 7.5  C 6 5.4375  6.734375 3.671875  8.203125 2.203125  C 9.671875 0.734375000000004  11.4375 0  13.5 0  C 15.5625 0  17.328125 0.734375000000004  18.796875 2.203125  Z " fill-rule="nonzero" fill="#000000" stroke="none" transform="matrix(1 0 0 1 47 395 )" />
  </g>
</svg>