<?xml version="1.0" encoding="utf-8"?>
<svg version="1.1" xmlns:xlink="http://www.w3.org/1999/xlink" width="25px" height="25px" xmlns="http://www.w3.org/2000/svg">
  <g transform="matrix(1 0 0 1 -35 -214 )">
    <path d="M 24.9467329545455 19.3714488636364  C 24.9822443181818 19.4543087121212  25 19.5785984848485  25 19.7443181818182  C 25 20.0639204545455  24.9408143939394 20.4811789772727  24.8224431818182 20.99609375  C 24.704071969697 21.5110085227273  24.5797821969697 21.9164299242424  24.4495738636364 22.2123579545455  C 24.2009943181818 22.8042140151515  23.4789299242424 23.4315814393939  22.2833806818182 24.0944602272727  C 21.1706912878788 24.6981534090909  20.0698390151515 25  18.9808238636364 25  C 18.6612215909091 25  18.3475378787879 24.9792850378788  18.0397727272727 24.9378551136364  C 17.7320075757576 24.8964251893939  17.3916903409091 24.8224431818182  17.0188210227273 24.7159090909091  C 16.6459517045455 24.609375  16.3677793560606 24.5235558712121  16.1843039772727 24.4584517045455  C 16.0008285984849 24.3933475378788  15.6723484848485 24.2720170454545  15.1988636363636 24.0944602272727  C 14.7253787878788 23.9169034090909  14.4353693181818 23.8103693181818  14.3288352272727 23.7748579545455  C 13.1687973484849 23.3605587121212  12.1330492424242 22.8693181818182  11.2215909090909 22.3011363636364  C 9.71827651515152 21.3660037878788  8.15577651515152 20.0875946969697  6.53409090909091 18.4659090909091  C 4.9124053030303 16.8442234848485  3.63399621212121 15.2817234848485  2.69886363636364 13.7784090909091  C 2.13068181818182 12.8669507575758  1.63944128787879 11.8312026515151  1.22514204545455 10.6711647727273  C 1.18963068181818 10.5646306818182  1.08309659090909 10.2746212121212  0.905539772727273 9.80113636363637  C 0.727982954545454 9.32765151515151  0.606652462121212 8.99917140151515  0.541548295454546 8.81569602272727  C 0.476444128787879 8.63222064393939  0.390625 8.35404829545455  0.284090909090909 7.98117897727273  C 0.177556818181818 7.60830965909091  0.103574810606061 7.26799242424242  0.0621448863636364 6.96022727272727  C 0.0207149621212121 6.65246212121212  0 6.33877840909091  0 6.01917613636363  C 0 4.93016098484848  0.301846590909091 3.82930871212121  0.905539772727273 2.71661931818182  C 1.56841856060606 1.52107007575757  2.19578598484848 0.799005681818182  2.78764204545455 0.550426136363635  C 3.08357007575758 0.420217803030301  3.48899147727273 0.295928030303028  4.00390625 0.177556818181818  C 4.51882102272727 0.059185606060605  4.93607954545455 0  5.25568181818182 0  C 5.42140151515152 0  5.54569128787879 0.0177556818181823  5.62855113636364 0.0532670454545442  C 5.84161931818182 0.124289772727273  6.15530303030303 0.574100378787878  6.56960227272727 1.40269886363636  C 6.69981060606061 1.62760416666666  6.87736742424243 1.94720643939394  7.10227272727273 2.36150568181818  C 7.32717803030303 2.77580492424242  7.53432765151515 3.15163352272727  7.72372159090909 3.48899147727273  C 7.91311553030303 3.82634943181818  8.09659090909091 4.14299242424242  8.27414772727273 4.43892045454546  C 8.30965909090909 4.48626893939394  8.41323390151515 4.63423295454546  8.58487215909091 4.8828125  C 8.75651041666667 5.13139204545454  8.88375946969697 5.3415009469697  8.96661931818182 5.51313920454546  C 9.04947916666667 5.68477746212121  9.09090909090909 5.85345643939394  9.09090909090909 6.01917613636363  C 9.09090909090909 6.25591856060606  8.92223011363636 6.55184659090909  8.58487215909091 6.90696022727273  C 8.24751420454546 7.26207386363637  7.8805634469697 7.5875946969697  7.48401988636364 7.88352272727273  C 7.08747632575758 8.17945075757575  6.72052556818182 8.49313446969697  6.38316761363636 8.82457386363637  C 6.04580965909091 9.15601325757576  5.87713068181818 9.42826704545455  5.87713068181818 9.64133522727273  C 5.87713068181818 9.74786931818182  5.90672348484849 9.88103693181818  5.96590909090909 10.0408380681818  C 6.0250946969697 10.2006392045455  6.07540246212121 10.3219696969697  6.11683238636364 10.4048295454545  C 6.15826231060606 10.4876893939394  6.24112215909091 10.6297348484848  6.36541193181818 10.8309659090909  C 6.48970170454545 11.032196969697  6.55776515151515 11.1446496212121  6.56960227272727 11.1683238636364  C 7.46922348484848 12.790009469697  8.49905303030303 14.1808712121212  9.65909090909091 15.3409090909091  C 10.8191287878788 16.500946969697  12.209990530303 17.5307765151515  13.8316761363636 18.4303977272727  C 13.8553503787879 18.4422348484848  13.967803030303 18.5102982954545  14.1690340909091 18.6345880681818  C 14.3702651515152 18.7588778409091  14.5123106060606 18.8417376893939  14.5951704545455 18.8831676136364  C 14.6780303030303 18.9245975378788  14.7993607954545 18.9749053030303  14.9591619318182 19.0340909090909  C 15.1189630681818 19.0932765151515  15.2521306818182 19.1228693181818  15.3586647727273 19.1228693181818  C 15.5717329545455 19.1228693181818  15.8439867424242 18.9541903409091  16.1754261363636 18.6168323863636  C 16.506865530303 18.2794744318182  16.8205492424242 17.9125236742424  17.1164772727273 17.5159801136364  C 17.4124053030303 17.1194365530303  17.7379261363636 16.7524857954545  18.0930397727273 16.4151278409091  C 18.4481534090909 16.0777698863636  18.7440814393939 15.9090909090909  18.9808238636364 15.9090909090909  C 19.1465435606061 15.9090909090909  19.3152225378788 15.9505208333333  19.4868607954545 16.0333806818182  C 19.6584990530303 16.116240530303  19.8686079545455 16.2434895833333  20.1171875 16.4151278409091  C 20.3657670454545 16.5867660984848  20.5137310606061 16.6903409090909  20.5610795454545 16.7258522727273  C 20.8570075757576 16.9034090909091  21.1736505681818 17.086884469697  21.5110085227273 17.2762784090909  C 21.8483664772727 17.4656723484848  22.2241950757576 17.672821969697  22.6384943181818 17.8977272727273  C 23.0527935606061 18.1226325757576  23.3723958333333 18.3001893939394  23.5973011363636 18.4303977272727  C 24.4258996212121 18.844696969697  24.8757102272727 19.1583806818182  24.9467329545455 19.3714488636364  Z " fill-rule="nonzero" fill="#000000" stroke="none" transform="matrix(1 0 0 1 35 214 )" />
  </g>
</svg>