<?xml version="1.0" encoding="utf-8"?>
<svg version="1.1" xmlns:xlink="http://www.w3.org/1999/xlink" width="125px" height="125px" xmlns="http://www.w3.org/2000/svg">
  <g>
    <path d="M 0 0  L 125 0  L 125 125  L 0 125  L 0 0  " fill-rule="nonzero" fill="#cccccc" stroke="none" />
    <path d="M 9 9  L 116 9  L 116 116  L 9 116  L 9 9  " fill-rule="nonzero" fill="#ffffff" stroke="none" />
    <path d="M 74.375 37.5  C 69.125 37.5  65 33.375  65 28.125  C 65 22.875  69.125 18.75  74.375 18.75  C 79.625 18.75  83.75 22.875  83.75 28.125  C 83.75 33.375  79.625 37.5  74.375 37.5  " fill-rule="nonzero" fill="#cccccc" stroke="none" />
    <path d="M 12 113  L 12 57.45  L 37.25 32.2  L 72.6 52.4  L 92.8 47.35  L 113 52.4  L 113 113  L 12 113  " fill-rule="nonzero" fill="#169bd5" stroke="none" />
  </g>
</svg>