<?xml version="1.0" encoding="utf-8"?>
<svg version="1.1" xmlns:xlink="http://www.w3.org/1999/xlink" width="335px" height="160px" xmlns="http://www.w3.org/2000/svg">
  <g transform="matrix(1 0 0 1 -20 -147 )">
    <path d="M 20.5 286.551724137931  C 20.5 286.551724137931  20.5 152  20.5 152  C 20.5 149.514718625761  22.5147186257614 147.5  25 147.5  C 25 147.5  350 147.5  350 147.5  C 352.485281374239 147.5  354.5 149.514718625761  354.5 152  C 354.5 152  354.5 286.551724137931  354.5 286.551724137931  C 354.5 289.03700551217  352.485281374239 291.051724137931  350 291.051724137931  C 350 291.051724137931  209.829381924765 291.051724137931  209.829381924765 291.051724137931  C 209.829381924765 291.051724137931  189.99265838498 306.37388301004  189.99265838498 306.37388301004  C 189.99265838498 306.37388301004  169.164098668207 291.051724137931  169.164098668207 291.051724137931  C 169.164098668207 291.051724137931  25 291.051724137931  25 291.051724137931  C 22.5147186257614 291.051724137931  20.5 289.03700551217  20.5 286.551724137931  Z " fill-rule="nonzero" fill="#ffffff" stroke="none" />
    <path d="M 20 286.551724137931  C 20 286.551724137931  20 152  20 152  C 20 149.238576250846  22.238576250846 147  25 147  C 25 147  350 147  350 147  C 352.761423749154 147  355 149.238576250846  355 152  C 355 152  355 286.551724137931  355 286.551724137931  C 355 289.313147887085  352.761423749154 291.551724137931  350 291.551724137931  C 350 291.551724137931  210 291.551724137931  210 291.551724137931  C 210 291.551724137931  190 307  190 307  C 190 307  169 291.551724137931  169 291.551724137931  C 169 291.551724137931  25 291.551724137931  25 291.551724137931  C 22.238576250846 291.551724137931  20 289.313147887085  20 286.551724137931  Z M 21 286.551724137931  C 21 288.760863137254  22.7908610006768 290.551724137931  25 290.551724137931  C 25 290.551724137931  169.328197336413 290.551724137931  169.328197336413 290.551724137931  C 169.328197336413 290.551724137931  189.98531676996 305.747766020081  189.98531676996 305.747766020081  C 189.98531676996 305.747766020081  209.658763849529 290.551724137931  209.658763849529 290.551724137931  C 209.658763849529 290.551724137931  350 290.551724137931  350 290.551724137931  C 352.209138999323 290.551724137931  354 288.760863137254  354 286.551724137931  C 354 286.551724137931  354 152  354 152  C 354 149.790861000677  352.209138999323 148  350 148  C 350 148  25 148  25 148  C 22.7908610006768 148  21 149.790861000677  21 152  C 21 152  21 286.551724137931  21 286.551724137931  Z " fill-rule="nonzero" fill="#e4e4e4" stroke="none" />
  </g>
</svg>