<?xml version="1.0" encoding="utf-8"?>
<svg version="1.1" xmlns:xlink="http://www.w3.org/1999/xlink" width="12px" height="12px" viewBox="266 63.5  12 12" xmlns="http://www.w3.org/2000/svg">
  <path d="M 272 63.5  C 275.36 63.5  278 66.14  278 69.5  C 278 72.86  275.36 75.5  272 75.5  C 268.64 75.5  266 72.86  266 69.5  C 266 66.14  268.64 63.5  272 63.5  Z " fill-rule="nonzero" fill="#ffffff" stroke="none" />
  <path d="M 272 64  C 275.08 64  277.5 66.42  277.5 69.5  C 277.5 72.58  275.08 75  272 75  C 268.92 75  266.5 72.58  266.5 69.5  C 266.5 66.42  268.92 64  272 64  Z " stroke-width="1" stroke="#797979" fill="none" />
  <path d="M 272 72.5  C 270.32 72.5  269 71.18  269 69.5  C 269 67.82  270.32 66.5  272 66.5  C 273.68 66.5  275 67.82  275 69.5  C 275 71.18  273.68 72.5  272 72.5  " fill-rule="nonzero" fill="#797979" stroke="none" />
</svg>